<mxfile host="app.diagrams.net" modified="2024-01-24T07:04:54.513Z" agent="Mozilla/5.0 (Windows NT 10.0; Win64; x64) AppleWebKit/537.36 (KHTML, like Gecko) Chrome/119.0.0.0 Safari/537.36 OPR/105.0.0.0" etag="HhYQX0uGn5FPPrC7VFp3" version="23.0.0" type="device" pages="2">
  <diagram name="Page-1" id="jwZZvylMH6xHplvc0WSg">
    <mxGraphModel dx="2397" dy="1274" grid="1" gridSize="10" guides="1" tooltips="1" connect="1" arrows="1" fold="1" page="1" pageScale="1" pageWidth="850" pageHeight="1100" math="0" shadow="0">
      <root>
        <mxCell id="0" />
        <mxCell id="1" parent="0" />
        <mxCell id="BPSqU_9N4jTBF3xgAgNl-2" value="User" style="shape=umlActor;verticalLabelPosition=bottom;verticalAlign=top;html=1;outlineConnect=0;fillColor=#fad9d5;strokeColor=#ae4132;" vertex="1" parent="1">
          <mxGeometry x="15" y="70" width="30" height="60" as="geometry" />
        </mxCell>
        <mxCell id="BPSqU_9N4jTBF3xgAgNl-3" value="" style="endArrow=none;dashed=1;html=1;dashPattern=1 3;strokeWidth=2;rounded=0;exitX=0.5;exitY=0;exitDx=0;exitDy=0;fillColor=#fad9d5;strokeColor=#ae4132;" edge="1" parent="1" source="BPSqU_9N4jTBF3xgAgNl-4">
          <mxGeometry width="50" height="50" relative="1" as="geometry">
            <mxPoint x="35" y="350" as="sourcePoint" />
            <mxPoint x="30" y="160" as="targetPoint" />
          </mxGeometry>
        </mxCell>
        <mxCell id="BPSqU_9N4jTBF3xgAgNl-4" value="" style="rounded=0;whiteSpace=wrap;html=1;fillColor=#F7BBBB;strokeColor=#561C24;gradientColor=none;fillStyle=solid;" vertex="1" parent="1">
          <mxGeometry x="20" y="200" width="20" height="80" as="geometry" />
        </mxCell>
        <mxCell id="BPSqU_9N4jTBF3xgAgNl-6" value="" style="endArrow=none;dashed=1;html=1;rounded=0;entryX=0.5;entryY=1;entryDx=0;entryDy=0;fillColor=#fad9d5;strokeColor=#ae4132;" edge="1" parent="1" target="BPSqU_9N4jTBF3xgAgNl-4">
          <mxGeometry width="50" height="50" relative="1" as="geometry">
            <mxPoint x="30" y="830" as="sourcePoint" />
            <mxPoint x="55" y="340" as="targetPoint" />
          </mxGeometry>
        </mxCell>
        <mxCell id="BPSqU_9N4jTBF3xgAgNl-7" value="E-commerce" style="rounded=0;whiteSpace=wrap;html=1;fillColor=#b1ddf0;strokeColor=#10739e;" vertex="1" parent="1">
          <mxGeometry x="175" y="80" width="100" height="20" as="geometry" />
        </mxCell>
        <mxCell id="BPSqU_9N4jTBF3xgAgNl-9" value="" style="endArrow=none;dashed=1;html=1;rounded=0;entryX=0.5;entryY=1;entryDx=0;entryDy=0;exitX=0.5;exitY=0;exitDx=0;exitDy=0;fillColor=#b1ddf0;strokeColor=#10739e;" edge="1" parent="1" source="BPSqU_9N4jTBF3xgAgNl-11" target="BPSqU_9N4jTBF3xgAgNl-7">
          <mxGeometry width="50" height="50" relative="1" as="geometry">
            <mxPoint x="225" y="180" as="sourcePoint" />
            <mxPoint x="245" y="110" as="targetPoint" />
          </mxGeometry>
        </mxCell>
        <mxCell id="BPSqU_9N4jTBF3xgAgNl-11" value="" style="rounded=0;whiteSpace=wrap;html=1;fillColor=#b1ddf0;strokeColor=#10739e;fillStyle=solid;" vertex="1" parent="1">
          <mxGeometry x="215" y="200" width="20" height="30" as="geometry" />
        </mxCell>
        <mxCell id="BPSqU_9N4jTBF3xgAgNl-13" value="" style="rounded=0;whiteSpace=wrap;html=1;fillColor=#b1ddf0;strokeColor=#10739e;fillStyle=solid;" vertex="1" parent="1">
          <mxGeometry x="215" y="250" width="20" height="30" as="geometry" />
        </mxCell>
        <mxCell id="BPSqU_9N4jTBF3xgAgNl-14" value="" style="endArrow=none;dashed=1;html=1;rounded=0;entryX=0.5;entryY=1;entryDx=0;entryDy=0;exitX=0.5;exitY=0;exitDx=0;exitDy=0;fillColor=#b1ddf0;strokeColor=#10739e;" edge="1" parent="1" source="BPSqU_9N4jTBF3xgAgNl-13" target="BPSqU_9N4jTBF3xgAgNl-11">
          <mxGeometry width="50" height="50" relative="1" as="geometry">
            <mxPoint x="165" y="290" as="sourcePoint" />
            <mxPoint x="215" y="240" as="targetPoint" />
          </mxGeometry>
        </mxCell>
        <mxCell id="BPSqU_9N4jTBF3xgAgNl-15" value="" style="endArrow=none;dashed=1;html=1;rounded=0;entryX=0.5;entryY=1;entryDx=0;entryDy=0;exitX=0.5;exitY=0;exitDx=0;exitDy=0;fillColor=#b1ddf0;strokeColor=#10739e;" edge="1" parent="1" source="BPSqU_9N4jTBF3xgAgNl-17" target="BPSqU_9N4jTBF3xgAgNl-13">
          <mxGeometry width="50" height="50" relative="1" as="geometry">
            <mxPoint x="225" y="310" as="sourcePoint" />
            <mxPoint x="235" y="290" as="targetPoint" />
          </mxGeometry>
        </mxCell>
        <mxCell id="BPSqU_9N4jTBF3xgAgNl-17" value="" style="rounded=0;whiteSpace=wrap;html=1;fillColor=#b1ddf0;strokeColor=#10739e;fillStyle=solid;" vertex="1" parent="1">
          <mxGeometry x="215" y="310" width="20" height="420" as="geometry" />
        </mxCell>
        <mxCell id="BPSqU_9N4jTBF3xgAgNl-18" value="" style="rounded=0;whiteSpace=wrap;html=1;fillColor=#b1ddf0;strokeColor=#10739e;fillStyle=solid;" vertex="1" parent="1">
          <mxGeometry x="215" y="740" width="20" height="30" as="geometry" />
        </mxCell>
        <mxCell id="BPSqU_9N4jTBF3xgAgNl-19" value="" style="endArrow=none;dashed=1;html=1;rounded=0;entryX=0.5;entryY=1;entryDx=0;entryDy=0;exitX=0.5;exitY=0;exitDx=0;exitDy=0;fillColor=#b1ddf0;strokeColor=#10739e;" edge="1" parent="1" source="BPSqU_9N4jTBF3xgAgNl-18" target="BPSqU_9N4jTBF3xgAgNl-17">
          <mxGeometry width="50" height="50" relative="1" as="geometry">
            <mxPoint x="165" y="640" as="sourcePoint" />
            <mxPoint x="215" y="590" as="targetPoint" />
          </mxGeometry>
        </mxCell>
        <mxCell id="BPSqU_9N4jTBF3xgAgNl-28" value="" style="endArrow=classic;html=1;rounded=0;entryX=0;entryY=0.5;entryDx=0;entryDy=0;exitX=0.978;exitY=0.189;exitDx=0;exitDy=0;exitPerimeter=0;" edge="1" parent="1" source="BPSqU_9N4jTBF3xgAgNl-4" target="BPSqU_9N4jTBF3xgAgNl-11">
          <mxGeometry width="50" height="50" relative="1" as="geometry">
            <mxPoint x="115" y="320" as="sourcePoint" />
            <mxPoint x="165" y="270" as="targetPoint" />
          </mxGeometry>
        </mxCell>
        <mxCell id="BPSqU_9N4jTBF3xgAgNl-33" value="Register()" style="edgeLabel;html=1;align=center;verticalAlign=middle;resizable=0;points=[];" vertex="1" connectable="0" parent="BPSqU_9N4jTBF3xgAgNl-28">
          <mxGeometry x="-0.206" y="-2" relative="1" as="geometry">
            <mxPoint as="offset" />
          </mxGeometry>
        </mxCell>
        <mxCell id="BPSqU_9N4jTBF3xgAgNl-31" value="" style="rounded=0;whiteSpace=wrap;html=1;fillColor=#b1ddf0;strokeColor=#10739e;fillStyle=solid;" vertex="1" parent="1">
          <mxGeometry x="215" y="250" width="20" height="30" as="geometry" />
        </mxCell>
        <mxCell id="BPSqU_9N4jTBF3xgAgNl-32" value="" style="endArrow=classic;html=1;rounded=0;entryX=0;entryY=0.5;entryDx=0;entryDy=0;exitX=0.978;exitY=0.189;exitDx=0;exitDy=0;exitPerimeter=0;" edge="1" target="BPSqU_9N4jTBF3xgAgNl-31" parent="1">
          <mxGeometry width="50" height="50" relative="1" as="geometry">
            <mxPoint x="40" y="265" as="sourcePoint" />
            <mxPoint x="165" y="320" as="targetPoint" />
          </mxGeometry>
        </mxCell>
        <mxCell id="BPSqU_9N4jTBF3xgAgNl-34" value="Login()" style="edgeLabel;html=1;align=center;verticalAlign=middle;resizable=0;points=[];" vertex="1" connectable="0" parent="BPSqU_9N4jTBF3xgAgNl-32">
          <mxGeometry x="-0.2564" y="-1" relative="1" as="geometry">
            <mxPoint as="offset" />
          </mxGeometry>
        </mxCell>
        <mxCell id="BPSqU_9N4jTBF3xgAgNl-35" value="Customer" style="rounded=0;whiteSpace=wrap;html=1;fillColor=#60a917;strokeColor=#2D7600;fontColor=#ffffff;labelBackgroundColor=none;labelBorderColor=none;" vertex="1" parent="1">
          <mxGeometry x="325" y="80" width="100" height="20" as="geometry" />
        </mxCell>
        <mxCell id="BPSqU_9N4jTBF3xgAgNl-36" value="" style="endArrow=none;dashed=1;html=1;rounded=0;entryX=0.5;entryY=1;entryDx=0;entryDy=0;exitX=0.5;exitY=0;exitDx=0;exitDy=0;fillColor=#60a917;strokeColor=#2D7600;labelBackgroundColor=none;labelBorderColor=none;" edge="1" parent="1" source="BPSqU_9N4jTBF3xgAgNl-38" target="BPSqU_9N4jTBF3xgAgNl-35">
          <mxGeometry width="50" height="50" relative="1" as="geometry">
            <mxPoint x="375" y="330" as="sourcePoint" />
            <mxPoint x="405" y="130" as="targetPoint" />
          </mxGeometry>
        </mxCell>
        <mxCell id="BPSqU_9N4jTBF3xgAgNl-38" value="" style="rounded=0;whiteSpace=wrap;html=1;fillColor=#60a917;strokeColor=#2D7600;fillStyle=solid;fontColor=#ffffff;labelBackgroundColor=none;labelBorderColor=none;" vertex="1" parent="1">
          <mxGeometry x="365" y="310" width="20" height="60" as="geometry" />
        </mxCell>
        <mxCell id="BPSqU_9N4jTBF3xgAgNl-45" value="" style="endArrow=classic;html=1;rounded=0;entryX=0;entryY=0.25;entryDx=0;entryDy=0;" edge="1" parent="1" target="BPSqU_9N4jTBF3xgAgNl-38">
          <mxGeometry width="50" height="50" relative="1" as="geometry">
            <mxPoint x="235" y="325" as="sourcePoint" />
            <mxPoint x="335" y="331" as="targetPoint" />
          </mxGeometry>
        </mxCell>
        <mxCell id="BPSqU_9N4jTBF3xgAgNl-73" value="Verify()" style="edgeLabel;html=1;align=center;verticalAlign=middle;resizable=0;points=[];labelBackgroundColor=none;labelBorderColor=none;" vertex="1" connectable="0" parent="BPSqU_9N4jTBF3xgAgNl-45">
          <mxGeometry x="-0.2615" y="-2" relative="1" as="geometry">
            <mxPoint x="22" y="3" as="offset" />
          </mxGeometry>
        </mxCell>
        <mxCell id="BPSqU_9N4jTBF3xgAgNl-46" value="" style="endArrow=none;dashed=1;html=1;rounded=0;entryX=0.5;entryY=1;entryDx=0;entryDy=0;labelBackgroundColor=none;labelBorderColor=none;" edge="1" parent="1" target="BPSqU_9N4jTBF3xgAgNl-38">
          <mxGeometry width="50" height="50" relative="1" as="geometry">
            <mxPoint x="375" y="390" as="sourcePoint" />
            <mxPoint x="395" y="380" as="targetPoint" />
          </mxGeometry>
        </mxCell>
        <mxCell id="BPSqU_9N4jTBF3xgAgNl-99" style="edgeStyle=orthogonalEdgeStyle;rounded=0;orthogonalLoop=1;jettySize=auto;html=1;exitX=1;exitY=0.25;exitDx=0;exitDy=0;entryX=0;entryY=0.25;entryDx=0;entryDy=0;" edge="1" parent="1" source="BPSqU_9N4jTBF3xgAgNl-47" target="BPSqU_9N4jTBF3xgAgNl-78">
          <mxGeometry relative="1" as="geometry" />
        </mxCell>
        <mxCell id="BPSqU_9N4jTBF3xgAgNl-100" value="Get_product_info()" style="edgeLabel;html=1;align=center;verticalAlign=middle;resizable=0;points=[];" vertex="1" connectable="0" parent="BPSqU_9N4jTBF3xgAgNl-99">
          <mxGeometry x="-0.2454" y="-1" relative="1" as="geometry">
            <mxPoint x="23" y="-1" as="offset" />
          </mxGeometry>
        </mxCell>
        <mxCell id="BPSqU_9N4jTBF3xgAgNl-47" value="" style="rounded=0;whiteSpace=wrap;html=1;fillColor=#60a917;strokeColor=#2D7600;fillStyle=solid;labelBackgroundColor=none;labelBorderColor=none;fontColor=#ffffff;" vertex="1" parent="1">
          <mxGeometry x="365" y="390" width="20" height="30" as="geometry" />
        </mxCell>
        <mxCell id="BPSqU_9N4jTBF3xgAgNl-49" value="" style="endArrow=none;dashed=1;html=1;rounded=0;entryX=0.5;entryY=1;entryDx=0;entryDy=0;labelBackgroundColor=none;labelBorderColor=none;fillColor=#60a917;strokeColor=#2D7600;" edge="1" parent="1" target="BPSqU_9N4jTBF3xgAgNl-47">
          <mxGeometry width="50" height="50" relative="1" as="geometry">
            <mxPoint x="375" y="530" as="sourcePoint" />
            <mxPoint x="365" y="450" as="targetPoint" />
          </mxGeometry>
        </mxCell>
        <mxCell id="BPSqU_9N4jTBF3xgAgNl-50" value="" style="rounded=0;whiteSpace=wrap;html=1;fillColor=#60a917;strokeColor=#2D7600;fillStyle=solid;labelBackgroundColor=none;labelBorderColor=none;fontColor=#ffffff;" vertex="1" parent="1">
          <mxGeometry x="365" y="520" width="20" height="40" as="geometry" />
        </mxCell>
        <mxCell id="BPSqU_9N4jTBF3xgAgNl-51" value="" style="endArrow=none;dashed=1;html=1;rounded=0;entryX=0.5;entryY=1;entryDx=0;entryDy=0;labelBackgroundColor=none;labelBorderColor=none;fillColor=#60a917;strokeColor=#2D7600;" edge="1" parent="1" target="BPSqU_9N4jTBF3xgAgNl-50">
          <mxGeometry width="50" height="50" relative="1" as="geometry">
            <mxPoint x="375" y="580" as="sourcePoint" />
            <mxPoint x="375" y="600" as="targetPoint" />
          </mxGeometry>
        </mxCell>
        <mxCell id="BPSqU_9N4jTBF3xgAgNl-105" style="edgeStyle=orthogonalEdgeStyle;rounded=0;orthogonalLoop=1;jettySize=auto;html=1;exitX=1;exitY=0.5;exitDx=0;exitDy=0;entryX=0;entryY=0.5;entryDx=0;entryDy=0;" edge="1" parent="1" source="BPSqU_9N4jTBF3xgAgNl-52" target="BPSqU_9N4jTBF3xgAgNl-80">
          <mxGeometry relative="1" as="geometry" />
        </mxCell>
        <mxCell id="BPSqU_9N4jTBF3xgAgNl-106" value="Buy_product()" style="edgeLabel;html=1;align=center;verticalAlign=middle;resizable=0;points=[];" vertex="1" connectable="0" parent="BPSqU_9N4jTBF3xgAgNl-105">
          <mxGeometry x="-0.0812" y="4" relative="1" as="geometry">
            <mxPoint as="offset" />
          </mxGeometry>
        </mxCell>
        <mxCell id="BPSqU_9N4jTBF3xgAgNl-52" value="" style="rounded=0;whiteSpace=wrap;html=1;fillColor=#60a917;strokeColor=#2D7600;fillStyle=solid;labelBackgroundColor=none;labelBorderColor=none;fontColor=#ffffff;" vertex="1" parent="1">
          <mxGeometry x="365" y="580" width="20" height="70" as="geometry" />
        </mxCell>
        <mxCell id="BPSqU_9N4jTBF3xgAgNl-54" value="" style="endArrow=none;dashed=1;html=1;rounded=0;entryX=0.5;entryY=1;entryDx=0;entryDy=0;labelBackgroundColor=none;labelBorderColor=none;fillColor=#60a917;strokeColor=#2D7600;" edge="1" parent="1" target="BPSqU_9N4jTBF3xgAgNl-52">
          <mxGeometry width="50" height="50" relative="1" as="geometry">
            <mxPoint x="375" y="680" as="sourcePoint" />
            <mxPoint x="385" y="660" as="targetPoint" />
          </mxGeometry>
        </mxCell>
        <mxCell id="BPSqU_9N4jTBF3xgAgNl-68" style="edgeStyle=orthogonalEdgeStyle;rounded=0;orthogonalLoop=1;jettySize=auto;html=1;exitX=0;exitY=0.75;exitDx=0;exitDy=0;entryX=1;entryY=0.75;entryDx=0;entryDy=0;" edge="1" parent="1" source="BPSqU_9N4jTBF3xgAgNl-55" target="BPSqU_9N4jTBF3xgAgNl-18">
          <mxGeometry relative="1" as="geometry" />
        </mxCell>
        <mxCell id="BPSqU_9N4jTBF3xgAgNl-69" value="Logout()" style="edgeLabel;html=1;align=center;verticalAlign=middle;resizable=0;points=[];" vertex="1" connectable="0" parent="BPSqU_9N4jTBF3xgAgNl-68">
          <mxGeometry x="0.1035" y="1" relative="1" as="geometry">
            <mxPoint as="offset" />
          </mxGeometry>
        </mxCell>
        <mxCell id="BPSqU_9N4jTBF3xgAgNl-55" value="" style="rounded=0;whiteSpace=wrap;html=1;fillColor=#60a917;strokeColor=#2D7600;fillStyle=solid;labelBackgroundColor=none;labelBorderColor=none;fontColor=#ffffff;" vertex="1" parent="1">
          <mxGeometry x="365" y="680" width="20" height="110" as="geometry" />
        </mxCell>
        <mxCell id="BPSqU_9N4jTBF3xgAgNl-57" value="" style="endArrow=classic;html=1;rounded=0;entryX=0;entryY=0.25;entryDx=0;entryDy=0;exitX=1;exitY=0.685;exitDx=0;exitDy=0;exitPerimeter=0;" edge="1" parent="1" source="BPSqU_9N4jTBF3xgAgNl-17" target="BPSqU_9N4jTBF3xgAgNl-52">
          <mxGeometry width="50" height="50" relative="1" as="geometry">
            <mxPoint x="245" y="597" as="sourcePoint" />
            <mxPoint x="305" y="560" as="targetPoint" />
          </mxGeometry>
        </mxCell>
        <mxCell id="BPSqU_9N4jTBF3xgAgNl-61" value="Dispay_to_customer" style="edgeLabel;html=1;align=center;verticalAlign=middle;resizable=0;points=[];" vertex="1" connectable="0" parent="BPSqU_9N4jTBF3xgAgNl-57">
          <mxGeometry x="-0.2293" y="2" relative="1" as="geometry">
            <mxPoint x="10" as="offset" />
          </mxGeometry>
        </mxCell>
        <mxCell id="BPSqU_9N4jTBF3xgAgNl-58" value="" style="endArrow=classic;html=1;rounded=0;exitX=0;exitY=0.75;exitDx=0;exitDy=0;entryX=1.05;entryY=0.767;entryDx=0;entryDy=0;entryPerimeter=0;" edge="1" parent="1" source="BPSqU_9N4jTBF3xgAgNl-52" target="BPSqU_9N4jTBF3xgAgNl-17">
          <mxGeometry width="50" height="50" relative="1" as="geometry">
            <mxPoint x="236" y="642" as="sourcePoint" />
            <mxPoint x="265" y="660" as="targetPoint" />
          </mxGeometry>
        </mxCell>
        <mxCell id="BPSqU_9N4jTBF3xgAgNl-62" value="Payment()" style="edgeLabel;html=1;align=center;verticalAlign=middle;resizable=0;points=[];" vertex="1" connectable="0" parent="BPSqU_9N4jTBF3xgAgNl-58">
          <mxGeometry x="0.098" y="-2" relative="1" as="geometry">
            <mxPoint as="offset" />
          </mxGeometry>
        </mxCell>
        <mxCell id="BPSqU_9N4jTBF3xgAgNl-63" value="" style="endArrow=classic;html=1;rounded=0;entryX=0.005;entryY=0.103;entryDx=0;entryDy=0;entryPerimeter=0;" edge="1" parent="1" target="BPSqU_9N4jTBF3xgAgNl-55">
          <mxGeometry width="50" height="50" relative="1" as="geometry">
            <mxPoint x="235" y="691" as="sourcePoint" />
            <mxPoint x="325" y="680" as="targetPoint" />
          </mxGeometry>
        </mxCell>
        <mxCell id="BPSqU_9N4jTBF3xgAgNl-64" value="Email()" style="edgeLabel;html=1;align=center;verticalAlign=middle;resizable=0;points=[];" vertex="1" connectable="0" parent="BPSqU_9N4jTBF3xgAgNl-63">
          <mxGeometry x="-0.1042" y="2" relative="1" as="geometry">
            <mxPoint as="offset" />
          </mxGeometry>
        </mxCell>
        <mxCell id="BPSqU_9N4jTBF3xgAgNl-65" value="" style="endArrow=classic;html=1;rounded=0;exitX=1.141;exitY=0.973;exitDx=0;exitDy=0;exitPerimeter=0;" edge="1" parent="1" source="BPSqU_9N4jTBF3xgAgNl-17">
          <mxGeometry width="50" height="50" relative="1" as="geometry">
            <mxPoint x="295" y="770" as="sourcePoint" />
            <mxPoint x="365" y="719" as="targetPoint" />
          </mxGeometry>
        </mxCell>
        <mxCell id="BPSqU_9N4jTBF3xgAgNl-66" value="Product_delivery()" style="edgeLabel;html=1;align=center;verticalAlign=middle;resizable=0;points=[];" vertex="1" connectable="0" parent="BPSqU_9N4jTBF3xgAgNl-65">
          <mxGeometry x="-0.1138" y="2" relative="1" as="geometry">
            <mxPoint as="offset" />
          </mxGeometry>
        </mxCell>
        <mxCell id="BPSqU_9N4jTBF3xgAgNl-71" value="" style="endArrow=none;dashed=1;html=1;rounded=0;entryX=0.5;entryY=1;entryDx=0;entryDy=0;" edge="1" parent="1" target="BPSqU_9N4jTBF3xgAgNl-18">
          <mxGeometry width="50" height="50" relative="1" as="geometry">
            <mxPoint x="225" y="830" as="sourcePoint" />
            <mxPoint x="245" y="790" as="targetPoint" />
          </mxGeometry>
        </mxCell>
        <mxCell id="BPSqU_9N4jTBF3xgAgNl-72" value="" style="endArrow=none;dashed=1;html=1;rounded=0;entryX=0.5;entryY=1;entryDx=0;entryDy=0;labelBackgroundColor=none;labelBorderColor=none;fillColor=#60a917;strokeColor=#2D7600;" edge="1" parent="1" target="BPSqU_9N4jTBF3xgAgNl-55">
          <mxGeometry width="50" height="50" relative="1" as="geometry">
            <mxPoint x="375" y="830" as="sourcePoint" />
            <mxPoint x="415" y="820" as="targetPoint" />
          </mxGeometry>
        </mxCell>
        <mxCell id="BPSqU_9N4jTBF3xgAgNl-74" value="Database" style="rounded=0;whiteSpace=wrap;html=1;fillColor=#1ba1e2;strokeColor=#006EAF;fontColor=#ffffff;" vertex="1" parent="1">
          <mxGeometry x="735" y="80" width="100" height="20" as="geometry" />
        </mxCell>
        <mxCell id="BPSqU_9N4jTBF3xgAgNl-75" value="Product" style="rounded=0;whiteSpace=wrap;html=1;fillColor=#bac8d3;strokeColor=#23445d;" vertex="1" parent="1">
          <mxGeometry x="575" y="80" width="100" height="20" as="geometry" />
        </mxCell>
        <mxCell id="BPSqU_9N4jTBF3xgAgNl-77" value="" style="endArrow=none;dashed=1;html=1;rounded=0;entryX=0.5;entryY=1;entryDx=0;entryDy=0;exitX=0.5;exitY=0;exitDx=0;exitDy=0;fillColor=#bac8d3;strokeColor=#23445d;" edge="1" parent="1" source="BPSqU_9N4jTBF3xgAgNl-78" target="BPSqU_9N4jTBF3xgAgNl-75">
          <mxGeometry width="50" height="50" relative="1" as="geometry">
            <mxPoint x="625" y="380" as="sourcePoint" />
            <mxPoint x="655" y="150" as="targetPoint" />
          </mxGeometry>
        </mxCell>
        <mxCell id="BPSqU_9N4jTBF3xgAgNl-78" value="" style="rounded=0;whiteSpace=wrap;html=1;fillColor=#bac8d3;strokeColor=#23445d;fillStyle=solid;" vertex="1" parent="1">
          <mxGeometry x="615" y="390" width="20" height="30" as="geometry" />
        </mxCell>
        <mxCell id="BPSqU_9N4jTBF3xgAgNl-103" style="rounded=0;orthogonalLoop=1;jettySize=auto;html=1;entryX=1;entryY=0.5;entryDx=0;entryDy=0;exitX=0.006;exitY=0.644;exitDx=0;exitDy=0;exitPerimeter=0;" edge="1" parent="1" source="BPSqU_9N4jTBF3xgAgNl-79" target="BPSqU_9N4jTBF3xgAgNl-50">
          <mxGeometry relative="1" as="geometry">
            <mxPoint x="615" y="550" as="sourcePoint" />
          </mxGeometry>
        </mxCell>
        <mxCell id="BPSqU_9N4jTBF3xgAgNl-104" value="Display_product_info()" style="edgeLabel;html=1;align=center;verticalAlign=middle;resizable=0;points=[];" vertex="1" connectable="0" parent="BPSqU_9N4jTBF3xgAgNl-103">
          <mxGeometry x="0.352" relative="1" as="geometry">
            <mxPoint x="35" as="offset" />
          </mxGeometry>
        </mxCell>
        <mxCell id="BPSqU_9N4jTBF3xgAgNl-110" style="edgeStyle=orthogonalEdgeStyle;rounded=0;orthogonalLoop=1;jettySize=auto;html=1;exitX=1;exitY=0.25;exitDx=0;exitDy=0;entryX=0;entryY=0.5;entryDx=0;entryDy=0;" edge="1" parent="1" source="BPSqU_9N4jTBF3xgAgNl-79" target="BPSqU_9N4jTBF3xgAgNl-109">
          <mxGeometry relative="1" as="geometry" />
        </mxCell>
        <mxCell id="BPSqU_9N4jTBF3xgAgNl-111" value="Search_in_Darabase()" style="edgeLabel;html=1;align=center;verticalAlign=middle;resizable=0;points=[];" vertex="1" connectable="0" parent="BPSqU_9N4jTBF3xgAgNl-110">
          <mxGeometry x="0.0109" y="4" relative="1" as="geometry">
            <mxPoint as="offset" />
          </mxGeometry>
        </mxCell>
        <mxCell id="BPSqU_9N4jTBF3xgAgNl-79" value="" style="rounded=0;whiteSpace=wrap;html=1;fillColor=#bac8d3;strokeColor=#23445d;fillStyle=solid;" vertex="1" parent="1">
          <mxGeometry x="615" y="450" width="20" height="140" as="geometry" />
        </mxCell>
        <mxCell id="BPSqU_9N4jTBF3xgAgNl-80" value="" style="rounded=0;whiteSpace=wrap;html=1;fillColor=#bac8d3;strokeColor=#23445d;fillStyle=solid;" vertex="1" parent="1">
          <mxGeometry x="615" y="600" width="20" height="30" as="geometry" />
        </mxCell>
        <mxCell id="BPSqU_9N4jTBF3xgAgNl-81" value="" style="endArrow=none;dashed=1;html=1;rounded=0;entryX=0.5;entryY=1;entryDx=0;entryDy=0;exitX=0.5;exitY=0;exitDx=0;exitDy=0;fillColor=#bac8d3;strokeColor=#23445d;" edge="1" parent="1" source="BPSqU_9N4jTBF3xgAgNl-79" target="BPSqU_9N4jTBF3xgAgNl-78">
          <mxGeometry width="50" height="50" relative="1" as="geometry">
            <mxPoint x="515" y="510" as="sourcePoint" />
            <mxPoint x="565" y="460" as="targetPoint" />
          </mxGeometry>
        </mxCell>
        <mxCell id="BPSqU_9N4jTBF3xgAgNl-82" value="" style="endArrow=none;dashed=1;html=1;rounded=0;entryX=0.5;entryY=1;entryDx=0;entryDy=0;exitX=0.5;exitY=0;exitDx=0;exitDy=0;fillColor=#bac8d3;strokeColor=#23445d;" edge="1" parent="1" source="BPSqU_9N4jTBF3xgAgNl-80" target="BPSqU_9N4jTBF3xgAgNl-79">
          <mxGeometry width="50" height="50" relative="1" as="geometry">
            <mxPoint x="465" y="630" as="sourcePoint" />
            <mxPoint x="515" y="580" as="targetPoint" />
          </mxGeometry>
        </mxCell>
        <mxCell id="BPSqU_9N4jTBF3xgAgNl-83" value="" style="endArrow=none;dashed=1;html=1;rounded=0;entryX=0.5;entryY=1;entryDx=0;entryDy=0;fillColor=#bac8d3;strokeColor=#23445d;" edge="1" parent="1" target="BPSqU_9N4jTBF3xgAgNl-80">
          <mxGeometry width="50" height="50" relative="1" as="geometry">
            <mxPoint x="625" y="830" as="sourcePoint" />
            <mxPoint x="625" y="720" as="targetPoint" />
          </mxGeometry>
        </mxCell>
        <mxCell id="BPSqU_9N4jTBF3xgAgNl-95" value="" style="endArrow=none;html=1;rounded=0;" edge="1" parent="1">
          <mxGeometry width="50" height="50" relative="1" as="geometry">
            <mxPoint x="385" y="324.74" as="sourcePoint" />
            <mxPoint x="445" y="324.74" as="targetPoint" />
          </mxGeometry>
        </mxCell>
        <mxCell id="BPSqU_9N4jTBF3xgAgNl-96" value="" style="endArrow=classic;html=1;rounded=0;" edge="1" parent="1">
          <mxGeometry width="50" height="50" relative="1" as="geometry">
            <mxPoint x="445" y="354.74" as="sourcePoint" />
            <mxPoint x="385" y="354.74" as="targetPoint" />
          </mxGeometry>
        </mxCell>
        <mxCell id="BPSqU_9N4jTBF3xgAgNl-97" value="" style="curved=1;endArrow=none;html=1;rounded=0;edgeStyle=orthogonalEdgeStyle;endFill=0;" edge="1" parent="1">
          <mxGeometry width="50" height="50" relative="1" as="geometry">
            <mxPoint x="445" y="324.74" as="sourcePoint" />
            <mxPoint x="445" y="354.74" as="targetPoint" />
            <Array as="points">
              <mxPoint x="475" y="324.74" />
              <mxPoint x="475" y="354.74" />
            </Array>
          </mxGeometry>
        </mxCell>
        <mxCell id="BPSqU_9N4jTBF3xgAgNl-98" value="Check_account()" style="edgeLabel;html=1;align=center;verticalAlign=middle;resizable=0;points=[];" vertex="1" connectable="0" parent="BPSqU_9N4jTBF3xgAgNl-97">
          <mxGeometry x="-0.0279" relative="1" as="geometry">
            <mxPoint as="offset" />
          </mxGeometry>
        </mxCell>
        <mxCell id="BPSqU_9N4jTBF3xgAgNl-108" value="" style="endArrow=none;dashed=1;html=1;rounded=0;entryX=0.5;entryY=1;entryDx=0;entryDy=0;fillColor=#1ba1e2;strokeColor=#006EAF;" edge="1" parent="1" target="BPSqU_9N4jTBF3xgAgNl-74">
          <mxGeometry width="50" height="50" relative="1" as="geometry">
            <mxPoint x="785" y="470" as="sourcePoint" />
            <mxPoint x="815" y="180" as="targetPoint" />
          </mxGeometry>
        </mxCell>
        <mxCell id="BPSqU_9N4jTBF3xgAgNl-109" value="" style="rounded=0;whiteSpace=wrap;html=1;fillColor=#1ba1e2;strokeColor=#006EAF;fillStyle=solid;fontColor=#ffffff;" vertex="1" parent="1">
          <mxGeometry x="775" y="470" width="20" height="30" as="geometry" />
        </mxCell>
        <mxCell id="BPSqU_9N4jTBF3xgAgNl-112" value="" style="endArrow=none;dashed=1;html=1;rounded=0;entryX=0.5;entryY=1;entryDx=0;entryDy=0;fillColor=#1ba1e2;strokeColor=#006EAF;" edge="1" parent="1" target="BPSqU_9N4jTBF3xgAgNl-109">
          <mxGeometry width="50" height="50" relative="1" as="geometry">
            <mxPoint x="785" y="520" as="sourcePoint" />
            <mxPoint x="795" y="520" as="targetPoint" />
          </mxGeometry>
        </mxCell>
        <mxCell id="BPSqU_9N4jTBF3xgAgNl-114" style="rounded=0;orthogonalLoop=1;jettySize=auto;html=1;exitX=0;exitY=0.5;exitDx=0;exitDy=0;entryX=1;entryY=0.607;entryDx=0;entryDy=0;entryPerimeter=0;" edge="1" parent="1" source="BPSqU_9N4jTBF3xgAgNl-113" target="BPSqU_9N4jTBF3xgAgNl-79">
          <mxGeometry relative="1" as="geometry">
            <mxPoint x="695" y="540" as="targetPoint" />
          </mxGeometry>
        </mxCell>
        <mxCell id="BPSqU_9N4jTBF3xgAgNl-115" value="Provide_product_info()" style="edgeLabel;html=1;align=center;verticalAlign=middle;resizable=0;points=[];" vertex="1" connectable="0" parent="BPSqU_9N4jTBF3xgAgNl-114">
          <mxGeometry x="0.2916" y="4" relative="1" as="geometry">
            <mxPoint x="21" y="-4" as="offset" />
          </mxGeometry>
        </mxCell>
        <mxCell id="BPSqU_9N4jTBF3xgAgNl-113" value="" style="rounded=0;whiteSpace=wrap;html=1;fillColor=#1ba1e2;strokeColor=#006EAF;fillStyle=solid;fontColor=#ffffff;" vertex="1" parent="1">
          <mxGeometry x="775" y="520" width="20" height="30" as="geometry" />
        </mxCell>
        <mxCell id="BPSqU_9N4jTBF3xgAgNl-116" value="" style="endArrow=none;dashed=1;html=1;rounded=0;entryX=0.5;entryY=1;entryDx=0;entryDy=0;" edge="1" parent="1" target="BPSqU_9N4jTBF3xgAgNl-113">
          <mxGeometry width="50" height="50" relative="1" as="geometry">
            <mxPoint x="785" y="820" as="sourcePoint" />
            <mxPoint x="775" y="670" as="targetPoint" />
          </mxGeometry>
        </mxCell>
      </root>
    </mxGraphModel>
  </diagram>
  <diagram name="Page-2" id="-nHgr9NzekZ3fff8DdIp">
    <mxGraphModel dx="839" dy="446" grid="1" gridSize="10" guides="1" tooltips="1" connect="1" arrows="1" fold="1" page="1" pageScale="1" pageWidth="850" pageHeight="1100" math="0" shadow="0">
      <root>
        <mxCell id="0" />
        <mxCell id="1" parent="0" />
        <mxCell id="_is7RZvJUG3sEjAgDTjA-2" style="edgeStyle=orthogonalEdgeStyle;rounded=0;orthogonalLoop=1;jettySize=auto;html=1;exitX=0.5;exitY=1;exitDx=0;exitDy=0;entryX=0.5;entryY=0;entryDx=0;entryDy=0;" parent="1" source="_is7RZvJUG3sEjAgDTjA-1" target="_is7RZvJUG3sEjAgDTjA-4" edge="1">
          <mxGeometry relative="1" as="geometry">
            <mxPoint x="400" y="210" as="targetPoint" />
            <Array as="points" />
          </mxGeometry>
        </mxCell>
        <mxCell id="_is7RZvJUG3sEjAgDTjA-5" style="edgeStyle=orthogonalEdgeStyle;rounded=0;orthogonalLoop=1;jettySize=auto;html=1;entryX=0.5;entryY=0;entryDx=0;entryDy=0;" parent="1" target="_is7RZvJUG3sEjAgDTjA-8" edge="1">
          <mxGeometry relative="1" as="geometry">
            <mxPoint x="50" y="210" as="targetPoint" />
            <mxPoint x="400" y="190" as="sourcePoint" />
          </mxGeometry>
        </mxCell>
        <mxCell id="_is7RZvJUG3sEjAgDTjA-1" value="Start" style="ellipse;whiteSpace=wrap;html=1;" parent="1" vertex="1">
          <mxGeometry x="340" y="90" width="120" height="80" as="geometry" />
        </mxCell>
        <mxCell id="_is7RZvJUG3sEjAgDTjA-63" style="edgeStyle=none;rounded=0;orthogonalLoop=1;jettySize=auto;html=1;" parent="1" source="_is7RZvJUG3sEjAgDTjA-4" edge="1">
          <mxGeometry relative="1" as="geometry">
            <mxPoint x="400" y="290" as="targetPoint" />
          </mxGeometry>
        </mxCell>
        <mxCell id="_is7RZvJUG3sEjAgDTjA-4" value="Admin" style="rounded=0;whiteSpace=wrap;html=1;" parent="1" vertex="1">
          <mxGeometry x="355" y="220" width="90" height="20" as="geometry" />
        </mxCell>
        <mxCell id="_is7RZvJUG3sEjAgDTjA-9" style="edgeStyle=orthogonalEdgeStyle;rounded=0;orthogonalLoop=1;jettySize=auto;html=1;exitX=0.5;exitY=1;exitDx=0;exitDy=0;" parent="1" source="_is7RZvJUG3sEjAgDTjA-8" edge="1">
          <mxGeometry relative="1" as="geometry">
            <mxPoint x="55" y="290" as="targetPoint" />
          </mxGeometry>
        </mxCell>
        <mxCell id="_is7RZvJUG3sEjAgDTjA-8" value="User" style="rounded=0;whiteSpace=wrap;html=1;" parent="1" vertex="1">
          <mxGeometry x="10" y="220" width="90" height="20" as="geometry" />
        </mxCell>
        <mxCell id="_is7RZvJUG3sEjAgDTjA-13" style="edgeStyle=none;rounded=0;orthogonalLoop=1;jettySize=auto;html=1;exitX=0.5;exitY=1;exitDx=0;exitDy=0;" parent="1" source="_is7RZvJUG3sEjAgDTjA-10" edge="1">
          <mxGeometry relative="1" as="geometry">
            <mxPoint x="160" y="880" as="targetPoint" />
            <Array as="points">
              <mxPoint x="50" y="420" />
              <mxPoint x="50" y="880" />
            </Array>
          </mxGeometry>
        </mxCell>
        <mxCell id="_is7RZvJUG3sEjAgDTjA-60" value="YES" style="edgeLabel;html=1;align=center;verticalAlign=middle;resizable=0;points=[];" parent="_is7RZvJUG3sEjAgDTjA-13" vertex="1" connectable="0">
          <mxGeometry x="-0.9517" y="1" relative="1" as="geometry">
            <mxPoint x="-1" as="offset" />
          </mxGeometry>
        </mxCell>
        <mxCell id="_is7RZvJUG3sEjAgDTjA-14" style="edgeStyle=none;rounded=0;orthogonalLoop=1;jettySize=auto;html=1;entryX=0;entryY=0.5;entryDx=0;entryDy=0;" parent="1" target="_is7RZvJUG3sEjAgDTjA-15" edge="1">
          <mxGeometry relative="1" as="geometry">
            <mxPoint x="110" y="390" as="targetPoint" />
            <mxPoint x="50" y="390" as="sourcePoint" />
          </mxGeometry>
        </mxCell>
        <mxCell id="_is7RZvJUG3sEjAgDTjA-10" value="Login" style="rhombus;whiteSpace=wrap;html=1;" parent="1" vertex="1">
          <mxGeometry x="10" y="300" width="80" height="60" as="geometry" />
        </mxCell>
        <mxCell id="_is7RZvJUG3sEjAgDTjA-16" style="edgeStyle=none;rounded=0;orthogonalLoop=1;jettySize=auto;html=1;entryX=0;entryY=0.5;entryDx=0;entryDy=0;" parent="1" target="_is7RZvJUG3sEjAgDTjA-18" edge="1">
          <mxGeometry relative="1" as="geometry">
            <mxPoint x="110" y="440" as="targetPoint" />
            <mxPoint x="50" y="440" as="sourcePoint" />
          </mxGeometry>
        </mxCell>
        <mxCell id="_is7RZvJUG3sEjAgDTjA-15" value="Search product" style="rounded=1;whiteSpace=wrap;html=1;" parent="1" vertex="1">
          <mxGeometry x="120" y="370" width="100" height="40" as="geometry" />
        </mxCell>
        <mxCell id="_is7RZvJUG3sEjAgDTjA-17" style="edgeStyle=none;rounded=0;orthogonalLoop=1;jettySize=auto;html=1;" parent="1" edge="1">
          <mxGeometry relative="1" as="geometry">
            <mxPoint x="120" y="489.5" as="targetPoint" />
            <mxPoint x="50" y="489.5" as="sourcePoint" />
            <Array as="points">
              <mxPoint x="80" y="489.5" />
            </Array>
          </mxGeometry>
        </mxCell>
        <mxCell id="_is7RZvJUG3sEjAgDTjA-18" value="View product" style="rounded=1;whiteSpace=wrap;html=1;" parent="1" vertex="1">
          <mxGeometry x="120" y="420" width="100" height="40" as="geometry" />
        </mxCell>
        <mxCell id="_is7RZvJUG3sEjAgDTjA-24" style="edgeStyle=none;rounded=0;orthogonalLoop=1;jettySize=auto;html=1;exitX=0.5;exitY=1;exitDx=0;exitDy=0;entryX=0.5;entryY=0;entryDx=0;entryDy=0;" parent="1" source="_is7RZvJUG3sEjAgDTjA-21" target="_is7RZvJUG3sEjAgDTjA-23" edge="1">
          <mxGeometry relative="1" as="geometry" />
        </mxCell>
        <mxCell id="_is7RZvJUG3sEjAgDTjA-21" value="Buy product and Add to cart" style="rounded=1;whiteSpace=wrap;html=1;" parent="1" vertex="1">
          <mxGeometry x="120" y="470" width="100" height="40" as="geometry" />
        </mxCell>
        <mxCell id="_is7RZvJUG3sEjAgDTjA-25" style="edgeStyle=none;rounded=0;orthogonalLoop=1;jettySize=auto;html=1;exitX=1;exitY=0.5;exitDx=0;exitDy=0;entryX=1;entryY=0.5;entryDx=0;entryDy=0;" parent="1" source="_is7RZvJUG3sEjAgDTjA-23" target="_is7RZvJUG3sEjAgDTjA-21" edge="1">
          <mxGeometry relative="1" as="geometry">
            <Array as="points">
              <mxPoint x="280" y="570" />
              <mxPoint x="280" y="490" />
            </Array>
          </mxGeometry>
        </mxCell>
        <mxCell id="_is7RZvJUG3sEjAgDTjA-28" value="NO" style="edgeLabel;html=1;align=center;verticalAlign=middle;resizable=0;points=[];" parent="_is7RZvJUG3sEjAgDTjA-25" vertex="1" connectable="0">
          <mxGeometry x="-0.01" y="-4" relative="1" as="geometry">
            <mxPoint x="-4" as="offset" />
          </mxGeometry>
        </mxCell>
        <mxCell id="_is7RZvJUG3sEjAgDTjA-23" value="Payment" style="rhombus;whiteSpace=wrap;html=1;" parent="1" vertex="1">
          <mxGeometry x="120" y="530" width="100" height="80" as="geometry" />
        </mxCell>
        <mxCell id="_is7RZvJUG3sEjAgDTjA-29" style="edgeStyle=none;rounded=0;orthogonalLoop=1;jettySize=auto;html=1;entryX=0.5;entryY=0;entryDx=0;entryDy=0;" parent="1" target="_is7RZvJUG3sEjAgDTjA-34" edge="1">
          <mxGeometry relative="1" as="geometry">
            <mxPoint x="330" y="690" as="targetPoint" />
            <mxPoint x="170" y="680" as="sourcePoint" />
            <Array as="points">
              <mxPoint x="245" y="680" />
            </Array>
          </mxGeometry>
        </mxCell>
        <mxCell id="_is7RZvJUG3sEjAgDTjA-30" value="" style="endArrow=none;html=1;rounded=0;entryX=0.5;entryY=1;entryDx=0;entryDy=0;" parent="1" target="_is7RZvJUG3sEjAgDTjA-23" edge="1">
          <mxGeometry width="50" height="50" relative="1" as="geometry">
            <mxPoint x="170" y="680" as="sourcePoint" />
            <mxPoint x="390" y="630" as="targetPoint" />
            <Array as="points" />
          </mxGeometry>
        </mxCell>
        <mxCell id="_is7RZvJUG3sEjAgDTjA-62" value="YES" style="edgeLabel;html=1;align=center;verticalAlign=middle;resizable=0;points=[];" parent="_is7RZvJUG3sEjAgDTjA-30" vertex="1" connectable="0">
          <mxGeometry x="0.0692" y="-2" relative="1" as="geometry">
            <mxPoint as="offset" />
          </mxGeometry>
        </mxCell>
        <mxCell id="_is7RZvJUG3sEjAgDTjA-31" style="edgeStyle=none;rounded=0;orthogonalLoop=1;jettySize=auto;html=1;entryX=0.389;entryY=-0.033;entryDx=0;entryDy=0;entryPerimeter=0;" parent="1" target="_is7RZvJUG3sEjAgDTjA-32" edge="1">
          <mxGeometry relative="1" as="geometry">
            <mxPoint x="100" y="680" as="targetPoint" />
            <mxPoint x="170" y="680" as="sourcePoint" />
            <Array as="points">
              <mxPoint x="95" y="680" />
            </Array>
          </mxGeometry>
        </mxCell>
        <mxCell id="_is7RZvJUG3sEjAgDTjA-32" value="Online pay" style="rounded=1;whiteSpace=wrap;html=1;" parent="1" vertex="1">
          <mxGeometry x="60" y="720" width="90" height="30" as="geometry" />
        </mxCell>
        <mxCell id="_is7RZvJUG3sEjAgDTjA-45" style="edgeStyle=none;rounded=0;orthogonalLoop=1;jettySize=auto;html=1;exitX=0.5;exitY=1;exitDx=0;exitDy=0;" parent="1" source="_is7RZvJUG3sEjAgDTjA-34" edge="1">
          <mxGeometry relative="1" as="geometry">
            <mxPoint x="245" y="800" as="targetPoint" />
            <mxPoint x="245" y="760" as="sourcePoint" />
          </mxGeometry>
        </mxCell>
        <mxCell id="_is7RZvJUG3sEjAgDTjA-34" value="Cash on Deliivery" style="rounded=1;whiteSpace=wrap;html=1;" parent="1" vertex="1">
          <mxGeometry x="200" y="720" width="90" height="30" as="geometry" />
        </mxCell>
        <mxCell id="_is7RZvJUG3sEjAgDTjA-36" value="Order Placed" style="whiteSpace=wrap;html=1;rounded=1;" parent="1" vertex="1">
          <mxGeometry x="90" y="800" width="190" height="30" as="geometry" />
        </mxCell>
        <mxCell id="_is7RZvJUG3sEjAgDTjA-43" style="edgeStyle=none;rounded=0;orthogonalLoop=1;jettySize=auto;html=1;exitX=0.5;exitY=1;exitDx=0;exitDy=0;entryX=0.079;entryY=0;entryDx=0;entryDy=0;entryPerimeter=0;" parent="1" source="_is7RZvJUG3sEjAgDTjA-32" target="_is7RZvJUG3sEjAgDTjA-36" edge="1">
          <mxGeometry relative="1" as="geometry" />
        </mxCell>
        <mxCell id="_is7RZvJUG3sEjAgDTjA-47" value="" style="endArrow=classic;html=1;rounded=0;entryX=0;entryY=0.5;entryDx=0;entryDy=0;" parent="1" target="_is7RZvJUG3sEjAgDTjA-36" edge="1">
          <mxGeometry width="50" height="50" relative="1" as="geometry">
            <mxPoint x="50" y="815" as="sourcePoint" />
            <mxPoint x="100" y="800" as="targetPoint" />
          </mxGeometry>
        </mxCell>
        <mxCell id="_is7RZvJUG3sEjAgDTjA-50" style="edgeStyle=none;rounded=0;orthogonalLoop=1;jettySize=auto;html=1;exitX=0.5;exitY=1;exitDx=0;exitDy=0;entryX=0.5;entryY=0;entryDx=0;entryDy=0;" parent="1" source="_is7RZvJUG3sEjAgDTjA-48" target="_is7RZvJUG3sEjAgDTjA-49" edge="1">
          <mxGeometry relative="1" as="geometry" />
        </mxCell>
        <mxCell id="_is7RZvJUG3sEjAgDTjA-48" value="Logout" style="rounded=1;whiteSpace=wrap;html=1;" parent="1" vertex="1">
          <mxGeometry x="160" y="870" width="90" height="30" as="geometry" />
        </mxCell>
        <mxCell id="_is7RZvJUG3sEjAgDTjA-49" value="Stop" style="ellipse;whiteSpace=wrap;html=1;" parent="1" vertex="1">
          <mxGeometry x="161.25" y="930" width="87.5" height="30" as="geometry" />
        </mxCell>
        <mxCell id="_is7RZvJUG3sEjAgDTjA-52" value="" style="endArrow=none;html=1;rounded=0;exitX=1;exitY=0.5;exitDx=0;exitDy=0;" parent="1" source="_is7RZvJUG3sEjAgDTjA-10" edge="1">
          <mxGeometry width="50" height="50" relative="1" as="geometry">
            <mxPoint x="120" y="340" as="sourcePoint" />
            <mxPoint x="170" y="330" as="targetPoint" />
          </mxGeometry>
        </mxCell>
        <mxCell id="_is7RZvJUG3sEjAgDTjA-57" style="edgeStyle=none;rounded=0;orthogonalLoop=1;jettySize=auto;html=1;exitX=1;exitY=0.5;exitDx=0;exitDy=0;" parent="1" source="_is7RZvJUG3sEjAgDTjA-53" edge="1">
          <mxGeometry relative="1" as="geometry">
            <mxPoint x="60" y="270" as="targetPoint" />
            <Array as="points">
              <mxPoint x="240" y="300" />
              <mxPoint x="240" y="270" />
              <mxPoint x="150" y="270" />
            </Array>
          </mxGeometry>
        </mxCell>
        <mxCell id="_is7RZvJUG3sEjAgDTjA-59" value="NO" style="edgeLabel;html=1;align=center;verticalAlign=middle;resizable=0;points=[];" parent="_is7RZvJUG3sEjAgDTjA-57" vertex="1" connectable="0">
          <mxGeometry x="0.5864" y="-1" relative="1" as="geometry">
            <mxPoint as="offset" />
          </mxGeometry>
        </mxCell>
        <mxCell id="_is7RZvJUG3sEjAgDTjA-53" value="Register" style="rhombus;whiteSpace=wrap;html=1;" parent="1" vertex="1">
          <mxGeometry x="150" y="302.5" width="90" height="55" as="geometry" />
        </mxCell>
        <mxCell id="_is7RZvJUG3sEjAgDTjA-67" style="edgeStyle=none;rounded=0;orthogonalLoop=1;jettySize=auto;html=1;" parent="1" source="_is7RZvJUG3sEjAgDTjA-64" edge="1">
          <mxGeometry relative="1" as="geometry">
            <mxPoint x="400" y="270" as="targetPoint" />
            <Array as="points">
              <mxPoint x="480" y="315" />
              <mxPoint x="480" y="270" />
            </Array>
          </mxGeometry>
        </mxCell>
        <mxCell id="_is7RZvJUG3sEjAgDTjA-91" value="NO" style="edgeLabel;html=1;align=center;verticalAlign=middle;resizable=0;points=[];" parent="_is7RZvJUG3sEjAgDTjA-67" vertex="1" connectable="0">
          <mxGeometry x="-0.7491" y="1" relative="1" as="geometry">
            <mxPoint as="offset" />
          </mxGeometry>
        </mxCell>
        <mxCell id="_is7RZvJUG3sEjAgDTjA-68" style="edgeStyle=none;rounded=0;orthogonalLoop=1;jettySize=auto;html=1;entryX=1;entryY=0.5;entryDx=0;entryDy=0;" parent="1" edge="1">
          <mxGeometry relative="1" as="geometry">
            <mxPoint x="250" y="884" as="targetPoint" />
            <mxPoint x="400" y="340" as="sourcePoint" />
            <Array as="points">
              <mxPoint x="400" y="884" />
            </Array>
          </mxGeometry>
        </mxCell>
        <mxCell id="_is7RZvJUG3sEjAgDTjA-69" style="edgeStyle=none;rounded=0;orthogonalLoop=1;jettySize=auto;html=1;" parent="1" source="_is7RZvJUG3sEjAgDTjA-64" edge="1">
          <mxGeometry relative="1" as="geometry">
            <mxPoint x="450" y="390" as="targetPoint" />
            <Array as="points">
              <mxPoint x="400" y="390" />
            </Array>
          </mxGeometry>
        </mxCell>
        <mxCell id="_is7RZvJUG3sEjAgDTjA-90" value="YES" style="edgeLabel;html=1;align=center;verticalAlign=middle;resizable=0;points=[];" parent="_is7RZvJUG3sEjAgDTjA-69" vertex="1" connectable="0">
          <mxGeometry x="0.4545" y="3" relative="1" as="geometry">
            <mxPoint y="2" as="offset" />
          </mxGeometry>
        </mxCell>
        <mxCell id="_is7RZvJUG3sEjAgDTjA-78" style="edgeStyle=none;rounded=0;orthogonalLoop=1;jettySize=auto;html=1;entryX=0;entryY=0.5;entryDx=0;entryDy=0;" parent="1" source="_is7RZvJUG3sEjAgDTjA-64" target="_is7RZvJUG3sEjAgDTjA-77" edge="1">
          <mxGeometry relative="1" as="geometry">
            <Array as="points">
              <mxPoint x="400" y="535" />
            </Array>
          </mxGeometry>
        </mxCell>
        <mxCell id="_is7RZvJUG3sEjAgDTjA-79" style="edgeStyle=none;rounded=0;orthogonalLoop=1;jettySize=auto;html=1;exitX=0.5;exitY=1;exitDx=0;exitDy=0;entryX=0;entryY=0.5;entryDx=0;entryDy=0;" parent="1" source="_is7RZvJUG3sEjAgDTjA-64" target="_is7RZvJUG3sEjAgDTjA-76" edge="1">
          <mxGeometry relative="1" as="geometry">
            <Array as="points">
              <mxPoint x="400" y="605" />
            </Array>
          </mxGeometry>
        </mxCell>
        <mxCell id="_is7RZvJUG3sEjAgDTjA-88" style="edgeStyle=none;rounded=0;orthogonalLoop=1;jettySize=auto;html=1;entryX=0;entryY=0.5;entryDx=0;entryDy=0;" parent="1" source="_is7RZvJUG3sEjAgDTjA-64" target="_is7RZvJUG3sEjAgDTjA-86" edge="1">
          <mxGeometry relative="1" as="geometry">
            <Array as="points">
              <mxPoint x="400" y="675" />
            </Array>
          </mxGeometry>
        </mxCell>
        <mxCell id="_is7RZvJUG3sEjAgDTjA-64" value="Login" style="rhombus;whiteSpace=wrap;html=1;" parent="1" vertex="1">
          <mxGeometry x="360" y="291" width="80" height="50" as="geometry" />
        </mxCell>
        <mxCell id="_is7RZvJUG3sEjAgDTjA-75" style="edgeStyle=none;rounded=0;orthogonalLoop=1;jettySize=auto;html=1;exitX=1;exitY=0.5;exitDx=0;exitDy=0;entryX=0.5;entryY=0;entryDx=0;entryDy=0;" parent="1" source="_is7RZvJUG3sEjAgDTjA-70" target="_is7RZvJUG3sEjAgDTjA-80" edge="1">
          <mxGeometry relative="1" as="geometry">
            <mxPoint x="600" y="680" as="targetPoint" />
            <Array as="points">
              <mxPoint x="600" y="390" />
            </Array>
          </mxGeometry>
        </mxCell>
        <mxCell id="_is7RZvJUG3sEjAgDTjA-70" value="Add Category" style="rounded=1;whiteSpace=wrap;html=1;" parent="1" vertex="1">
          <mxGeometry x="450" y="375" width="100" height="30" as="geometry" />
        </mxCell>
        <mxCell id="_is7RZvJUG3sEjAgDTjA-74" style="edgeStyle=none;rounded=0;orthogonalLoop=1;jettySize=auto;html=1;entryX=0;entryY=0.5;entryDx=0;entryDy=0;" parent="1" target="_is7RZvJUG3sEjAgDTjA-72" edge="1">
          <mxGeometry relative="1" as="geometry">
            <mxPoint x="440" y="465" as="targetPoint" />
            <mxPoint x="400" y="465" as="sourcePoint" />
          </mxGeometry>
        </mxCell>
        <mxCell id="_is7RZvJUG3sEjAgDTjA-72" value="Add Product" style="rounded=1;whiteSpace=wrap;html=1;" parent="1" vertex="1">
          <mxGeometry x="450" y="450" width="100" height="30" as="geometry" />
        </mxCell>
        <mxCell id="_is7RZvJUG3sEjAgDTjA-76" value="Manage Payment" style="rounded=1;whiteSpace=wrap;html=1;" parent="1" vertex="1">
          <mxGeometry x="450" y="590" width="100" height="30" as="geometry" />
        </mxCell>
        <mxCell id="_is7RZvJUG3sEjAgDTjA-77" value="Manage Order" style="rounded=1;whiteSpace=wrap;html=1;" parent="1" vertex="1">
          <mxGeometry x="450" y="520" width="100" height="30" as="geometry" />
        </mxCell>
        <mxCell id="_is7RZvJUG3sEjAgDTjA-80" value="Reports" style="shape=document;whiteSpace=wrap;html=1;boundedLbl=1;" parent="1" vertex="1">
          <mxGeometry x="560" y="720" width="80" height="50" as="geometry" />
        </mxCell>
        <mxCell id="_is7RZvJUG3sEjAgDTjA-81" value="" style="endArrow=none;html=1;rounded=0;exitX=1;exitY=0.5;exitDx=0;exitDy=0;" parent="1" source="_is7RZvJUG3sEjAgDTjA-76" edge="1">
          <mxGeometry width="50" height="50" relative="1" as="geometry">
            <mxPoint x="470" y="700" as="sourcePoint" />
            <mxPoint x="600" y="605" as="targetPoint" />
          </mxGeometry>
        </mxCell>
        <mxCell id="_is7RZvJUG3sEjAgDTjA-83" value="" style="endArrow=none;html=1;rounded=0;exitX=1;exitY=0.5;exitDx=0;exitDy=0;" parent="1" source="_is7RZvJUG3sEjAgDTjA-77" edge="1">
          <mxGeometry width="50" height="50" relative="1" as="geometry">
            <mxPoint x="560" y="615" as="sourcePoint" />
            <mxPoint x="600" y="535" as="targetPoint" />
          </mxGeometry>
        </mxCell>
        <mxCell id="_is7RZvJUG3sEjAgDTjA-84" value="" style="endArrow=none;html=1;rounded=0;exitX=1;exitY=0.5;exitDx=0;exitDy=0;" parent="1" source="_is7RZvJUG3sEjAgDTjA-72" edge="1">
          <mxGeometry width="50" height="50" relative="1" as="geometry">
            <mxPoint x="560" y="545" as="sourcePoint" />
            <mxPoint x="600" y="465" as="targetPoint" />
          </mxGeometry>
        </mxCell>
        <mxCell id="_is7RZvJUG3sEjAgDTjA-86" value="Check Feedback" style="rounded=1;whiteSpace=wrap;html=1;" parent="1" vertex="1">
          <mxGeometry x="450" y="660" width="100" height="30" as="geometry" />
        </mxCell>
        <mxCell id="_is7RZvJUG3sEjAgDTjA-89" value="" style="endArrow=none;html=1;rounded=0;exitX=1;exitY=0.5;exitDx=0;exitDy=0;" parent="1" source="_is7RZvJUG3sEjAgDTjA-86" edge="1">
          <mxGeometry width="50" height="50" relative="1" as="geometry">
            <mxPoint x="560" y="615" as="sourcePoint" />
            <mxPoint x="600" y="675" as="targetPoint" />
          </mxGeometry>
        </mxCell>
      </root>
    </mxGraphModel>
  </diagram>
</mxfile>
